<svg xmlns="http://www.w3.org/2000/svg" xmlns:xlink="http://www.w3.org/1999/xlink" width="414" height="896" viewBox="0 0 414 896">
  <defs>
    <clipPath id="clip-Onboarding_Screen_C_1">
      <rect width="414" height="896"/>
    </clipPath>
  </defs>
  <g id="Onboarding_Screen_C_1" data-name="Onboarding Screen (C) – 1" clip-path="url(#clip-Onboarding_Screen_C_1)">
    <rect width="414" height="896" fill="#fff"/>
    <path id="Polygon_37" data-name="Polygon 37" d="M99.75,0,133,57.5,99.75,115H33.25L0,57.5,33.25,0Z" transform="translate(463 -14) rotate(90)" fill="#e8e7e7"/>
    <path id="Polygon_36" data-name="Polygon 36" d="M45.75,0,61,26.5,45.75,53H15.25L0,26.5,15.25,0Z" transform="translate(321 69) rotate(90)" fill="#f4f4f4" opacity="0.46"/>
    <path id="Polygon_35" data-name="Polygon 35" d="M60.75,0,81,35.5,60.75,71H20.25L0,35.5,20.25,0Z" transform="translate(392 114) rotate(90)" fill="#eeeded" opacity="0.69"/>
    <circle id="Ellipse_85" data-name="Ellipse 85" cx="102.5" cy="102.5" r="102.5" transform="translate(-79 712)" fill="#7db84d" opacity="0.8"/>
    <circle id="Ellipse_86" data-name="Ellipse 86" cx="42.5" cy="42.5" r="42.5" transform="translate(39 621)" fill="#7db84d" opacity="0.2"/>
    <circle id="Ellipse_87" data-name="Ellipse 87" cx="19" cy="19" r="19" transform="translate(126 718)" fill="#7db84d" opacity="0.6"/>
  </g>
</svg>
